<svg width="206" height="40" viewBox="0 0 206 40" fill="none" xmlns="http://www.w3.org/2000/svg">
<path d="M23.9521 33.048H11.3761L9.36007 39H0.768066L12.9601 5.304H22.4641L34.6561 39H25.9681L23.9521 33.048ZM21.8401 26.712L17.6641 14.376L13.5361 26.712H21.8401Z" fill="#141414"/>
<path d="M54.6867 11.928C57.8227 11.928 60.3187 12.952 62.1747 15C64.0627 17.016 65.0067 19.8 65.0067 23.352V39H56.8467V24.456C56.8467 22.664 56.3827 21.272 55.4547 20.28C54.5267 19.288 53.2787 18.792 51.7107 18.792C50.1427 18.792 48.8947 19.288 47.9667 20.28C47.0387 21.272 46.5747 22.664 46.5747 24.456V39H38.3667V12.216H46.5747V15.768C47.4067 14.584 48.5267 13.656 49.9347 12.984C51.3427 12.28 52.9267 11.928 54.6867 11.928Z" fill="#141414"/>
<path d="M85.6384 32.04V39H81.4624C78.4864 39 76.1664 38.28 74.5024 36.84C72.8384 35.368 72.0064 32.984 72.0064 29.688V19.032H68.7424V12.216H72.0064V5.688H80.2144V12.216H85.5904V19.032H80.2144V29.784C80.2144 30.584 80.4064 31.16 80.7904 31.512C81.1744 31.864 81.8144 32.04 82.7104 32.04H85.6384Z" fill="#141414"/>
<path d="M102.402 39.384C99.7784 39.384 97.4104 38.824 95.2984 37.704C93.2184 36.584 91.5704 34.984 90.3544 32.904C89.1704 30.824 88.5784 28.392 88.5784 25.608C88.5784 22.856 89.1864 20.44 90.4024 18.36C91.6184 16.248 93.2824 14.632 95.3944 13.512C97.5064 12.392 99.8744 11.832 102.498 11.832C105.122 11.832 107.49 12.392 109.602 13.512C111.714 14.632 113.378 16.248 114.594 18.36C115.81 20.44 116.418 22.856 116.418 25.608C116.418 28.36 115.794 30.792 114.546 32.904C113.33 34.984 111.65 36.584 109.506 37.704C107.394 38.824 105.026 39.384 102.402 39.384ZM102.402 32.28C103.97 32.28 105.298 31.704 106.386 30.552C107.506 29.4 108.066 27.752 108.066 25.608C108.066 23.464 107.522 21.816 106.434 20.664C105.378 19.512 104.066 18.936 102.498 18.936C100.898 18.936 99.5704 19.512 98.5144 20.664C97.4584 21.784 96.9304 23.432 96.9304 25.608C96.9304 27.752 97.4424 29.4 98.4664 30.552C99.5224 31.704 100.834 32.28 102.402 32.28Z" fill="#141414"/>
<path d="M137.093 11.928C140.229 11.928 142.725 12.952 144.581 15C146.469 17.016 147.413 19.8 147.413 23.352V39H139.253V24.456C139.253 22.664 138.789 21.272 137.861 20.28C136.933 19.288 135.685 18.792 134.117 18.792C132.549 18.792 131.301 19.288 130.373 20.28C129.445 21.272 128.981 22.664 128.981 24.456V39H120.773V12.216H128.981V15.768C129.813 14.584 130.933 13.656 132.341 12.984C133.749 12.28 135.333 11.928 137.093 11.928Z" fill="#141414"/>
<path d="M157.245 9.432C155.805 9.432 154.621 9.016 153.693 8.184C152.797 7.32 152.349 6.264 152.349 5.016C152.349 3.736 152.797 2.68 153.693 1.848C154.621 0.983998 155.805 0.551998 157.245 0.551998C158.653 0.551998 159.805 0.983998 160.701 1.848C161.629 2.68 162.093 3.736 162.093 5.016C162.093 6.264 161.629 7.32 160.701 8.184C159.805 9.016 158.653 9.432 157.245 9.432ZM161.325 12.216V39H153.117V12.216H161.325Z" fill="#141414"/>
<path d="M192.521 25.176C192.521 25.944 192.473 26.744 192.377 27.576H173.801C173.929 29.24 174.457 30.52 175.385 31.416C176.345 32.28 177.513 32.712 178.889 32.712C180.937 32.712 182.361 31.848 183.161 30.12H191.897C191.449 31.88 190.633 33.464 189.449 34.872C188.297 36.28 186.841 37.384 185.081 38.184C183.321 38.984 181.353 39.384 179.177 39.384C176.553 39.384 174.217 38.824 172.169 37.704C170.121 36.584 168.521 34.984 167.369 32.904C166.217 30.824 165.641 28.392 165.641 25.608C165.641 22.824 166.201 20.392 167.321 18.312C168.473 16.232 170.073 14.632 172.121 13.512C174.169 12.392 176.521 11.832 179.177 11.832C181.769 11.832 184.073 12.376 186.089 13.464C188.105 14.552 189.673 16.104 190.793 18.12C191.945 20.136 192.521 22.488 192.521 25.176ZM184.121 23.016C184.121 21.608 183.641 20.488 182.681 19.656C181.721 18.824 180.521 18.408 179.081 18.408C177.705 18.408 176.537 18.808 175.577 19.608C174.649 20.408 174.073 21.544 173.849 23.016H184.121Z" fill="#141414"/>
<path d="M205.059 3.48V39H196.851V3.48H205.059Z" fill="#141414"/>
</svg>
